<svg width="146" height="57" viewBox="0 0 146 57" fill="none" xmlns="http://www.w3.org/2000/svg">
<g filter="url(#filter0_d_1308_4352)">
<path d="M0 0H117.303C130.834 0 141.803 10.969 141.803 24.5C141.803 38.031 130.834 49 117.303 49H0V0Z" fill="white" shape-rendering="crispEdges"/>
<g clip-path="url(#clip0_1308_4352)">
<path d="M36.2067 41C37.554 41 38.6458 40.0299 38.6458 38.8277C38.6458 37.6256 37.554 36.6555 36.2067 36.6555C34.8593 36.6555 33.7676 37.6256 33.7676 38.8277C33.7676 40.0299 34.8593 41 36.2067 41Z" fill="#FFCE00"/>
<path d="M50.2934 41H44.9518L36.6919 22.7522L28.3522 41H23L34.0292 16.8735L36.7132 11L39.376 16.8787L50.2934 40.9947V41Z" fill="black"/>
<path d="M61.6686 32.3743V32.5272H58.6597L55.5709 28.0457H54.5378V32.5272H51.8164V20.2267H55.9756C57.0727 20.2267 57.9887 20.3954 58.7183 20.7381C59.4585 21.065 60.0071 21.5237 60.3692 22.1037C60.726 22.6731 60.9071 23.3269 60.9071 24.0598C60.9071 24.9192 60.6887 25.6678 60.2574 26.3005C59.8207 26.9227 59.1816 27.3814 58.3402 27.6872L61.674 32.3743H61.6686ZM54.5378 26.0158H55.7094C56.4762 26.0158 57.0621 25.8682 57.4721 25.5782C57.8928 25.2882 58.1059 24.8084 58.1059 24.1336C58.1059 23.5536 57.9195 23.116 57.552 22.826C57.1845 22.536 56.6626 22.3884 55.9969 22.3884H54.5378V26.0158ZM72.7564 32.7909C71.5049 32.7909 70.4771 32.5642 69.6676 32.1055C68.8634 31.6362 68.2723 31.0088 67.9048 30.2285C67.548 29.4323 67.367 28.5255 67.367 27.5132V20.2267H70.0883V27.1916C70.0883 28.2566 70.3013 29.0844 70.722 29.6801C71.1428 30.2601 71.8777 30.5554 72.9268 30.5554C73.9759 30.5554 74.6257 30.2654 75.0357 29.6801C75.4458 29.0844 75.6482 28.3199 75.6482 27.3814V20.2267H78.3695V27.4605C78.3695 28.7153 78.1245 29.7381 77.6399 30.5343C77.1553 31.3199 76.4896 31.8946 75.6482 32.2636C74.8174 32.6169 73.8535 32.7961 72.7511 32.7961L72.7564 32.7909ZM89.0366 32.7909C87.1194 32.7909 85.4897 32.2953 84.1477 31.3093L85.3726 29.4323C86.5602 30.181 87.7265 30.5501 88.8608 30.5501C89.5904 30.5501 90.1602 30.4341 90.565 30.2074C90.9857 29.9807 91.1987 29.638 91.1987 29.1845C91.1987 28.9051 91.1295 28.6784 90.9857 28.4991C90.8579 28.3093 90.6236 28.1301 90.2774 27.9666C89.9472 27.7874 89.4413 27.5659 88.7649 27.3023L88.3229 27.1336C87.5028 26.8172 86.8478 26.5114 86.3472 26.2214C85.8466 25.9315 85.4525 25.5571 85.1596 25.1037C84.8667 24.6503 84.7175 24.0703 84.7175 23.3743C84.7175 22.6046 84.9412 21.9613 85.3886 21.4552C85.8359 20.9385 86.4111 20.5589 87.114 20.3163C87.817 20.0738 88.5626 19.9578 89.3561 19.9578C90.0697 19.9578 90.8046 20.0791 91.5609 20.3163C92.3277 20.5431 93.0573 20.8858 93.7443 21.3392L92.4981 23.2004C91.8857 22.8313 91.3425 22.5677 90.8685 22.4042C90.3946 22.2408 89.8833 22.1564 89.3348 22.1564C88.7223 22.1564 88.2537 22.2566 87.9342 22.4622C87.6253 22.6626 87.4762 22.9367 87.4762 23.2794C87.4762 23.4956 87.5401 23.6907 87.6679 23.87C87.7957 24.0334 88.0247 24.2074 88.3602 24.3814C88.6904 24.5448 89.1697 24.7399 89.7981 24.9719L90.2188 25.1248C91.039 25.4306 91.694 25.7153 92.1946 25.9789C92.7058 26.2425 93.1319 26.6221 93.478 27.1178C93.8242 27.6134 93.9946 28.2513 93.9946 29.0369C93.9946 29.8225 93.7763 30.5554 93.3449 31.1248C92.9082 31.6837 92.3171 32.1002 91.5609 32.3796C90.8206 32.6591 89.9738 32.7961 89.0312 32.7961L89.0366 32.7909Z" fill="#D78E28"/>
</g>
</g>
<defs>
<filter id="filter0_d_1308_4352" x="-4" y="0" width="149.803" height="57" filterUnits="userSpaceOnUse" color-interpolation-filters="sRGB">
<feFlood flood-opacity="0" result="BackgroundImageFix"/>
<feColorMatrix in="SourceAlpha" type="matrix" values="0 0 0 0 0 0 0 0 0 0 0 0 0 0 0 0 0 0 127 0" result="hardAlpha"/>
<feOffset dy="4"/>
<feGaussianBlur stdDeviation="2"/>
<feComposite in2="hardAlpha" operator="out"/>
<feColorMatrix type="matrix" values="0 0 0 0 0 0 0 0 0 0 0 0 0 0 0 0 0 0 0.25 0"/>
<feBlend mode="normal" in2="BackgroundImageFix" result="effect1_dropShadow_1308_4352"/>
<feBlend mode="normal" in="SourceGraphic" in2="effect1_dropShadow_1308_4352" result="shape"/>
</filter>
<clipPath id="clip0_1308_4352">
<rect width="71" height="30" fill="white" transform="translate(23 11)"/>
</clipPath>
</defs>
</svg>
