<svg width="41" height="43" viewBox="0 0 41 43" fill="none" xmlns="http://www.w3.org/2000/svg">
<rect width="41" height="43" rx="10" fill="url(#paint0_linear_2223_2755)"/>
<path d="M28.5 26.5V16.5C28.5 14.332 24.837 12.5 20.5 12.5C16.163 12.5 12.5 14.332 12.5 16.5V26.5C12.5 28.668 16.163 30.5 20.5 30.5C24.837 30.5 28.5 28.668 28.5 26.5ZM20.5 14.5C24.191 14.5 26.431 16.007 26.5 16.494C26.431 16.993 24.191 18.5 20.5 18.5C16.809 18.5 14.569 16.993 14.5 16.506C14.569 16.007 16.809 14.5 20.5 14.5ZM14.5 19.107C15.979 19.954 18.137 20.5 20.5 20.5C22.863 20.5 25.021 19.954 26.5 19.107V21.494C26.431 21.993 24.191 23.5 20.5 23.5C16.809 23.5 14.569 21.993 14.5 21.5V19.107ZM14.5 26.5V24.107C15.979 24.954 18.137 25.5 20.5 25.5C22.863 25.5 25.021 24.954 26.5 24.107V26.494C26.431 26.993 24.191 28.5 20.5 28.5C16.809 28.5 14.569 26.993 14.5 26.5Z" fill="white"/>
<defs>
<linearGradient id="paint0_linear_2223_2755" x1="20.5" y1="0" x2="20.5" y2="43" gradientUnits="userSpaceOnUse">
<stop stop-color="#21A6DF"/>
<stop offset="0.475962" stop-color="#79CCF0"/>
<stop offset="1" stop-color="#493C84"/>
</linearGradient>
</defs>
</svg>
