<svg width="1440" height="461" viewBox="0 0 1440 461" fill="none" xmlns="http://www.w3.org/2000/svg">
<rect width="1440" height="461" fill="#125A79" fill-opacity="0.15"/>
<g clip-path="url(#clip0_1341_5761)">
<path d="M262.653 332.963L256.704 336.664C254.798 337.849 254.217 340.355 255.4 342.257L269.379 364.731C270.562 366.632 273.071 367.217 274.972 366.034L280.925 362.331C282.833 361.144 283.414 358.638 282.229 356.733L268.252 334.263C267.682 333.348 266.773 332.697 265.723 332.452C264.673 332.208 263.57 332.39 262.654 332.958M265.087 287.759L259.138 291.459C257.229 292.646 256.648 295.153 257.833 297.058L291.401 351.023C292.588 352.932 295.094 353.513 297.003 352.326L302.949 348.628C304.857 347.44 305.438 344.934 304.253 343.029L270.687 289.067C269.5 287.158 266.994 286.577 265.085 287.764M297.712 291.09L291.759 294.793C289.851 295.98 289.27 298.486 290.457 300.395L313.427 337.323C314.614 339.231 317.12 339.812 319.025 338.627L324.974 334.927C325.889 334.357 326.54 333.447 326.785 332.397C327.029 331.348 326.847 330.244 326.279 329.328L303.307 292.397C302.12 290.489 299.613 289.907 297.705 291.094" stroke="white" stroke-opacity="0.5" stroke-width="1.3" stroke-linecap="round" stroke-linejoin="round"/>
</g>
<g clip-path="url(#clip1_1341_5761)">
<path d="M1027.65 261.963L1021.7 265.664C1019.8 266.849 1019.22 269.355 1020.4 271.257L1034.38 293.731C1035.56 295.632 1038.07 296.217 1039.97 295.034L1045.92 291.331C1047.83 290.144 1048.41 287.638 1047.23 285.733L1033.25 263.263C1032.68 262.348 1031.77 261.697 1030.72 261.452C1029.67 261.208 1028.57 261.39 1027.65 261.958M1030.09 216.759L1024.14 220.459C1022.23 221.646 1021.65 224.153 1022.83 226.058L1056.4 280.023C1057.59 281.932 1060.09 282.513 1062 281.326L1067.95 277.628C1069.86 276.44 1070.44 273.934 1069.25 272.029L1035.69 218.067C1034.5 216.158 1031.99 215.577 1030.09 216.764M1062.71 220.09L1056.76 223.793C1054.85 224.98 1054.27 227.486 1055.46 229.395L1078.43 266.323C1079.61 268.231 1082.12 268.812 1084.03 267.627L1089.97 263.927C1090.89 263.357 1091.54 262.447 1091.78 261.397C1092.03 260.348 1091.85 259.244 1091.28 258.328L1068.31 221.397C1067.12 219.489 1064.61 218.907 1062.7 220.094" stroke="white" stroke-opacity="0.5" stroke-width="1.3" stroke-linecap="round" stroke-linejoin="round"/>
</g>
<g clip-path="url(#clip2_1341_5761)">
<path d="M1311.77 84.7573C1297.2 75.9493 1281.83 75.6012 1276.77 83.9706L1260.73 110.504C1255.67 118.873 1263.11 132.325 1277.68 141.133C1292.25 149.941 1307.63 150.285 1312.69 141.915L1328.72 115.386C1333.78 107.017 1326.33 93.567 1311.76 84.759M1309.76 88.0751C1322.04 95.5018 1329.21 107.089 1325.4 113.379C1321.6 119.669 1308.01 118.714 1295.73 111.288C1283.44 103.861 1276.27 92.2713 1280.08 85.9771C1283.88 79.6829 1297.48 80.6441 1309.77 88.0734M1309.37 139.91C1305.56 146.205 1291.98 145.246 1279.69 137.819C1267.41 130.393 1260.24 118.803 1264.04 112.513L1267.59 106.651C1269.27 113.85 1275.86 121.919 1285.71 127.871C1295.55 133.823 1305.76 135.91 1312.91 134.053L1309.37 139.91ZM1317.39 126.65C1313.58 132.94 1300 131.982 1287.71 124.555C1275.43 117.128 1268.26 105.538 1272.06 99.2484L1275.61 93.3778C1277.3 100.573 1283.88 108.646 1293.73 114.598C1303.58 120.55 1313.79 122.633 1320.94 120.78L1317.39 126.65Z" fill="white" fill-opacity="0.5"/>
</g>
<path d="M743.75 384C743.75 390.962 746.516 397.639 751.438 402.562C756.361 407.484 763.038 410.25 770 410.25C776.962 410.25 783.639 407.484 788.562 402.562C793.484 397.639 796.25 390.962 796.25 384C796.25 377.038 793.484 370.361 788.562 365.438C783.639 360.516 776.962 357.75 770 357.75C763.038 357.75 756.361 360.516 751.438 365.438C746.516 370.361 743.75 377.038 743.75 384Z" stroke="white" stroke-opacity="0.5" stroke-width="1.5" stroke-linejoin="round"/>
<path d="M758.75 384C758.75 377.038 759.935 370.361 762.045 365.438C764.155 360.516 767.016 357.75 770 357.75C772.984 357.75 775.845 360.516 777.955 365.438C780.065 370.361 781.25 377.038 781.25 384C781.25 390.962 780.065 397.639 777.955 402.562C775.845 407.484 772.984 410.25 770 410.25C767.016 410.25 764.155 407.484 762.045 402.562C759.935 397.639 758.75 390.962 758.75 384Z" stroke="white" stroke-opacity="0.5" stroke-width="1.5" stroke-linejoin="round"/>
<path d="M745.625 392.75H794.375M745.625 375.25H794.375" stroke="white" stroke-opacity="0.5" stroke-width="1.5" stroke-linecap="round"/>
<path d="M459.75 69C459.75 75.9619 462.516 82.6387 467.438 87.5616C472.361 92.4844 479.038 95.25 486 95.25C492.962 95.25 499.639 92.4844 504.562 87.5616C509.484 82.6387 512.25 75.9619 512.25 69C512.25 62.0381 509.484 55.3613 504.562 50.4384C499.639 45.5156 492.962 42.75 486 42.75C479.038 42.75 472.361 45.5156 467.438 50.4384C462.516 55.3613 459.75 62.0381 459.75 69Z" stroke="white" stroke-opacity="0.5" stroke-width="1.5" stroke-linejoin="round"/>
<path d="M474.75 69C474.75 62.0381 475.935 55.3613 478.045 50.4384C480.155 45.5156 483.016 42.75 486 42.75C488.984 42.75 491.845 45.5156 493.955 50.4384C496.065 55.3613 497.25 62.0381 497.25 69C497.25 75.9619 496.065 82.6387 493.955 87.5616C491.845 92.4844 488.984 95.25 486 95.25C483.016 95.25 480.155 92.4844 478.045 87.5616C475.935 82.6387 474.75 75.9619 474.75 69Z" stroke="white" stroke-opacity="0.5" stroke-width="1.5" stroke-linejoin="round"/>
<path d="M461.625 77.75H510.375M461.625 60.25H510.375" stroke="white" stroke-opacity="0.5" stroke-width="1.5" stroke-linecap="round"/>
<path d="M115.938 125H84.0625C82.8193 125 81.627 125.494 80.7479 126.373C79.8689 127.252 79.375 128.444 79.375 129.688V180.312C79.375 181.556 79.8689 182.748 80.7479 183.627C81.627 184.506 82.8193 185 84.0625 185H115.938C117.181 185 118.373 184.506 119.252 183.627C120.131 182.748 120.625 181.556 120.625 180.312V129.688C120.625 128.444 120.131 127.252 119.252 126.373C118.373 125.494 117.181 125 115.938 125ZM115.938 180.312H84.0625V129.688H115.938V180.312Z" fill="white" fill-opacity="0.5"/>
<path d="M100 175.625C101.657 175.625 103 174.366 103 172.812C103 171.259 101.657 170 100 170C98.3431 170 97 171.259 97 172.812C97 174.366 98.3431 175.625 100 175.625Z" fill="white" fill-opacity="0.5"/>
<path d="M1353.94 369H1322.06C1320.82 369 1319.63 369.494 1318.75 370.373C1317.87 371.252 1317.38 372.444 1317.38 373.688V424.312C1317.38 425.556 1317.87 426.748 1318.75 427.627C1319.63 428.506 1320.82 429 1322.06 429H1353.94C1355.18 429 1356.37 428.506 1357.25 427.627C1358.13 426.748 1358.62 425.556 1358.62 424.312V373.688C1358.62 372.444 1358.13 371.252 1357.25 370.373C1356.37 369.494 1355.18 369 1353.94 369ZM1353.94 424.312H1322.06V373.688H1353.94V424.312Z" fill="white" fill-opacity="0.5"/>
<path d="M1338 419.625C1339.66 419.625 1341 418.366 1341 416.812C1341 415.259 1339.66 414 1338 414C1336.34 414 1335 415.259 1335 416.812C1335 418.366 1336.34 419.625 1338 419.625Z" fill="white" fill-opacity="0.5"/>
<defs>
<clipPath id="clip0_1341_5761">
<rect width="93" height="93" fill="white" transform="translate(217 305.121) rotate(-31.8826)"/>
</clipPath>
<clipPath id="clip1_1341_5761">
<rect width="93" height="93" fill="white" transform="translate(982 234.121) rotate(-31.8826)"/>
</clipPath>
<clipPath id="clip2_1341_5761">
<rect width="80" height="80" fill="white" transform="translate(1282.46 60.075) rotate(31.1552)"/>
</clipPath>
</defs>
</svg>
