<svg width="48" height="48" viewBox="0 0 48 48" fill="none" xmlns="http://www.w3.org/2000/svg">
<g filter="url(#filter0_i_2294_756)">
<rect width="48" height="48" rx="24" fill="#F3F3F5"/>
<path d="M24 23.5C23.2422 23.5 22.5155 23.2366 21.9797 22.7678C21.4439 22.2989 21.1429 21.663 21.1429 21C21.1429 20.337 21.4439 19.7011 21.9797 19.2322C22.5155 18.7634 23.2422 18.5 24 18.5C24.7578 18.5 25.4845 18.7634 26.0203 19.2322C26.5561 19.7011 26.8571 20.337 26.8571 21C26.8571 21.3283 26.7832 21.6534 26.6397 21.9567C26.4961 22.26 26.2856 22.5356 26.0203 22.7678C25.755 22.9999 25.44 23.1841 25.0934 23.3097C24.7467 23.4353 24.3752 23.5 24 23.5ZM24 14C21.8783 14 19.8434 14.7375 18.3431 16.0503C16.8429 17.363 16 19.1435 16 21C16 26.25 24 34 24 34C24 34 32 26.25 32 21C32 19.1435 31.1571 17.363 29.6569 16.0503C28.1566 14.7375 26.1217 14 24 14Z" fill="black"/>
</g>
<defs>
<filter id="filter0_i_2294_756" x="0" y="0" width="48" height="52" filterUnits="userSpaceOnUse" color-interpolation-filters="sRGB">
<feFlood flood-opacity="0" result="BackgroundImageFix"/>
<feBlend mode="normal" in="SourceGraphic" in2="BackgroundImageFix" result="shape"/>
<feColorMatrix in="SourceAlpha" type="matrix" values="0 0 0 0 0 0 0 0 0 0 0 0 0 0 0 0 0 0 127 0" result="hardAlpha"/>
<feOffset dy="4"/>
<feGaussianBlur stdDeviation="2"/>
<feComposite in2="hardAlpha" operator="arithmetic" k2="-1" k3="1"/>
<feColorMatrix type="matrix" values="0 0 0 0 0 0 0 0 0 0 0 0 0 0 0 0 0 0 0.25 0"/>
<feBlend mode="normal" in2="shape" result="effect1_innerShadow_2294_756"/>
</filter>
</defs>
</svg>
