<svg width="54" height="54" viewBox="0 0 54 54" fill="none" xmlns="http://www.w3.org/2000/svg">
<g filter="url(#filter0_i_2294_624)">
<rect width="54" height="54" rx="15" fill="white"/>
<path d="M12 42H42M22 20.3333H23.6667M22 27H23.6667M22 33.6667H23.6667M30.3333 20.3333H32M30.3333 27H32M30.3333 33.6667H32M15.3333 42V15.3333C15.3333 14.4493 15.6845 13.6014 16.3096 12.9763C16.9348 12.3512 17.7826 12 18.6667 12H35.3333C36.2174 12 37.0652 12.3512 37.6904 12.9763C38.3155 13.6014 38.6667 14.4493 38.6667 15.3333V42" stroke="url(#paint0_linear_2294_624)" stroke-width="4.5" stroke-linecap="round" stroke-linejoin="round"/>
</g>
<defs>
<filter id="filter0_i_2294_624" x="0" y="0" width="54" height="58" filterUnits="userSpaceOnUse" color-interpolation-filters="sRGB">
<feFlood flood-opacity="0" result="BackgroundImageFix"/>
<feBlend mode="normal" in="SourceGraphic" in2="BackgroundImageFix" result="shape"/>
<feColorMatrix in="SourceAlpha" type="matrix" values="0 0 0 0 0 0 0 0 0 0 0 0 0 0 0 0 0 0 127 0" result="hardAlpha"/>
<feOffset dy="4"/>
<feGaussianBlur stdDeviation="2"/>
<feComposite in2="hardAlpha" operator="arithmetic" k2="-1" k3="1"/>
<feColorMatrix type="matrix" values="0 0 0 0 0 0 0 0 0 0 0 0 0 0 0 0 0 0 0.25 0"/>
<feBlend mode="normal" in2="shape" result="effect1_innerShadow_2294_624"/>
</filter>
<linearGradient id="paint0_linear_2294_624" x1="27" y1="12" x2="27" y2="42" gradientUnits="userSpaceOnUse">
<stop stop-color="#FFCD17"/>
<stop offset="1" stop-color="#D78E28"/>
</linearGradient>
</defs>
</svg>
