<svg width="54" height="54" viewBox="0 0 54 54" fill="none" xmlns="http://www.w3.org/2000/svg">
<g filter="url(#filter0_i_2294_5109)">
<rect width="54" height="54" rx="15" fill="url(#paint0_linear_2294_5109)"/>
<path d="M14.9428 22.9983C14.9427 21.8384 15.2354 20.6968 15.7947 19.6759C16.354 18.6551 17.1623 17.7871 18.1468 17.1501C19.1314 16.513 20.2614 16.1269 21.4352 16.0263C22.609 15.9258 23.7898 16.1141 24.8714 16.5742C25.9529 17.0343 26.9013 17.7519 27.6313 18.6623C28.3612 19.5727 28.8499 20.6475 29.0532 21.7899C29.2565 22.9323 29.1681 24.1066 28.7961 25.2071C28.424 26.3075 27.7799 27.2997 26.9217 28.0944C28.5398 28.8677 29.9447 30.0135 31.0173 31.4348C32.09 32.8562 32.7988 34.5111 33.0837 36.2593C33.115 36.4539 33.1071 36.6526 33.0605 36.8441C33.0138 37.0357 32.9292 37.2163 32.8116 37.3757C32.6941 37.5351 32.5457 37.6701 32.3751 37.773C32.2045 37.876 32.015 37.9448 31.8174 37.9757C31.6197 38.0065 31.4179 37.9988 31.2233 37.9528C31.0287 37.9069 30.8452 37.8236 30.6833 37.7079C30.5214 37.5921 30.3842 37.4461 30.2796 37.2782C30.1751 37.1103 30.1051 36.9237 30.0738 36.7292C29.7691 34.8505 28.7941 33.1402 27.3237 31.9055C25.8534 30.6708 23.984 29.9926 22.0513 29.9926C20.1187 29.9926 18.2493 30.6708 16.7789 31.9055C15.3086 33.1402 14.3335 34.8505 14.0289 36.7292C13.9974 36.9237 13.9273 37.1102 13.8226 37.2781C13.7179 37.446 13.5806 37.5919 13.4186 37.7076C13.2566 37.8233 13.0731 37.9064 12.8784 37.9522C12.6838 37.998 12.4819 38.0057 12.2843 37.9747C12.0866 37.9437 11.8971 37.8747 11.7266 37.7716C11.556 37.6686 11.4078 37.5334 11.2903 37.374C11.1728 37.2145 11.0884 37.0338 11.0418 36.8422C10.9953 36.6506 10.9875 36.4519 11.019 36.2573C11.3028 34.5092 12.0113 32.8544 13.0841 31.4336C14.1569 30.0128 15.5624 28.8679 17.181 28.0964C16.4742 27.442 15.911 26.652 15.5261 25.7753C15.1412 24.8985 14.9427 23.9534 14.9428 22.9983ZM33.2218 19.9994C34.4018 20.0002 35.5563 20.3382 36.5449 20.9723C37.5336 21.6064 38.314 22.5095 38.7914 23.5717C39.2689 24.634 39.4228 25.8099 39.2345 26.9566C39.0461 28.1033 38.5237 29.1715 37.7306 30.0316C38.9675 30.6348 40.0665 31.4799 40.9605 32.5153C41.8544 33.5506 42.5246 34.7545 42.93 36.0534C43.0105 36.3054 43.0218 36.574 42.9628 36.8317C42.9038 37.0895 42.7766 37.3273 42.594 37.521C42.4115 37.7147 42.1801 37.8574 41.9234 37.9346C41.6668 38.0118 41.3939 38.0208 41.1325 37.9607C40.8712 37.9012 40.6305 37.7748 40.4347 37.5944C40.2389 37.414 40.095 37.1858 40.0175 36.9331C39.653 35.7742 38.9895 34.7282 38.0917 33.897C37.194 33.0659 36.0927 32.478 34.8953 32.1908C34.5627 32.1118 34.2669 31.9248 34.0554 31.6601C33.8439 31.3953 33.7291 31.0682 33.7295 30.7314V30.0276C33.7294 29.7485 33.8084 29.4748 33.9576 29.2375C34.1069 29.0001 34.3205 28.8085 34.5744 28.6841C35.1902 28.3838 35.6846 27.8873 35.9775 27.2754C36.2704 26.6634 36.3446 25.972 36.1879 25.3134C36.0312 24.6547 35.6529 24.0676 35.1144 23.6473C34.576 23.227 33.909 22.9983 33.2218 22.9983C32.8178 22.9983 32.4304 22.8403 32.1447 22.5591C31.859 22.2779 31.6986 21.8965 31.6986 21.4988C31.6986 21.1011 31.859 20.7198 32.1447 20.4386C32.4304 20.1574 32.8178 19.9994 33.2218 19.9994ZM22.0513 18.9997C21.5104 18.9877 20.9725 19.0822 20.4691 19.2776C19.9658 19.473 19.5072 19.7654 19.1203 20.1377C18.7333 20.51 18.4258 20.9547 18.2158 21.4455C18.0059 21.9364 17.8976 22.4636 17.8975 22.9962C17.8974 23.5289 18.0053 24.0561 18.2151 24.5471C18.4248 25.0381 18.732 25.4829 19.1188 25.8553C19.5056 26.2278 19.964 26.5205 20.4672 26.7162C20.9705 26.9118 21.5084 27.0065 22.0493 26.9948C23.1106 26.9717 24.1206 26.5405 24.863 25.7935C25.6054 25.0466 26.0212 24.0432 26.0215 22.9982C26.0218 21.9532 25.6064 20.9497 24.8644 20.2024C24.1224 19.455 23.1126 19.0234 22.0513 18.9997Z" fill="black"/>
</g>
<defs>
<filter id="filter0_i_2294_5109" x="0" y="0" width="54" height="58" filterUnits="userSpaceOnUse" color-interpolation-filters="sRGB">
<feFlood flood-opacity="0" result="BackgroundImageFix"/>
<feBlend mode="normal" in="SourceGraphic" in2="BackgroundImageFix" result="shape"/>
<feColorMatrix in="SourceAlpha" type="matrix" values="0 0 0 0 0 0 0 0 0 0 0 0 0 0 0 0 0 0 127 0" result="hardAlpha"/>
<feOffset dy="4"/>
<feGaussianBlur stdDeviation="2"/>
<feComposite in2="hardAlpha" operator="arithmetic" k2="-1" k3="1"/>
<feColorMatrix type="matrix" values="0 0 0 0 0 0 0 0 0 0 0 0 0 0 0 0 0 0 0.25 0"/>
<feBlend mode="normal" in2="shape" result="effect1_innerShadow_2294_5109"/>
</filter>
<linearGradient id="paint0_linear_2294_5109" x1="27" y1="0" x2="27" y2="54" gradientUnits="userSpaceOnUse">
<stop stop-color="#FFD12B"/>
<stop offset="1" stop-color="#D78E28"/>
</linearGradient>
</defs>
</svg>
