<svg width="43" height="43" viewBox="0 0 43 43" fill="none" xmlns="http://www.w3.org/2000/svg">
<rect width="43" height="43" rx="10" fill="url(#paint0_linear_2223_4278)"/>
<path fill-rule="evenodd" clip-rule="evenodd" d="M19.1378 11.505C17.0741 11.9953 15.2125 13.1117 13.808 14.7012C12.4035 16.2908 11.5249 18.2757 11.2925 20.3841H16.0883C16.415 17.2238 17.4613 14.1885 19.1378 11.505ZM23.8622 11.505C25.5449 14.1923 26.5882 17.23 26.9117 20.3841H31.7075C31.4751 18.2757 30.5965 16.2908 29.192 14.7012C27.7875 13.1117 25.9259 11.9953 23.8622 11.505ZM24.6656 20.3841C24.3148 17.364 23.2278 14.4763 21.5 11.9746C19.7722 14.4763 18.6852 17.364 18.3344 20.3841H24.6656ZM18.3344 22.6159H24.6656C24.3148 25.636 23.2278 28.5237 21.5 31.0254C19.7722 28.5237 18.6852 25.636 18.3344 22.6159ZM16.0883 22.6159H11.2925C11.5249 24.7243 12.4035 26.7092 13.808 28.2988C15.2125 29.8883 17.0741 31.0047 19.1378 31.495C17.4551 28.8077 16.4118 25.77 16.0883 22.6159ZM23.8622 31.495C25.5449 28.8077 26.5882 25.77 26.9117 22.6159H31.7075C31.4751 24.7243 30.5965 26.7092 29.192 28.2988C27.7875 29.8883 25.9259 31.0047 23.8622 31.495ZM21.5 34C23.1415 34 24.767 33.6767 26.2835 33.0485C27.8001 32.4203 29.1781 31.4996 30.3388 30.3388C31.4996 29.1781 32.4203 27.8001 33.0485 26.2835C33.6767 24.767 34 23.1415 34 21.5C34 19.8585 33.6767 18.233 33.0485 16.7165C32.4203 15.1999 31.4996 13.8219 30.3388 12.6612C29.1781 11.5004 27.8001 10.5797 26.2835 9.95151C24.767 9.32332 23.1415 9 21.5 9C18.1848 9 15.0054 10.317 12.6612 12.6612C10.317 15.0054 9 18.1848 9 21.5C9 24.8152 10.317 27.9946 12.6612 30.3388C15.0054 32.683 18.1848 34 21.5 34Z" fill="white"/>
<defs>
<linearGradient id="paint0_linear_2223_4278" x1="21.5" y1="0" x2="21.5" y2="43" gradientUnits="userSpaceOnUse">
<stop stop-color="#00C951"/>
<stop offset="0.509615" stop-color="#4DA771"/>
<stop offset="1" stop-color="#006328"/>
</linearGradient>
</defs>
</svg>
