<svg width="16" height="16" viewBox="0 0 16 16" fill="none" xmlns="http://www.w3.org/2000/svg">
<path d="M12 8V11.3333C12 12.438 10.2093 13.3333 8 13.3333C5.79067 13.3333 4 12.438 4 11.3333V8M12 8V4.66667M12 8C12 9.10467 10.2093 10 8 10C5.79067 10 4 9.10467 4 8M4 8V4.66667M12 4.66667C12 3.562 10.2093 2.66667 8 2.66667C5.79067 2.66667 4 3.562 4 4.66667M12 4.66667C12 5.77133 10.2093 6.66667 8 6.66667C5.79067 6.66667 4 5.77133 4 4.66667" stroke="#D78E28" stroke-width="2" stroke-linecap="round" stroke-linejoin="round"/>
</svg>
