<svg width="16" height="16" viewBox="0 0 16 16" fill="none" xmlns="http://www.w3.org/2000/svg">
<path d="M12.6667 2.66667H3.33333C2.8029 2.66667 2.29419 2.87738 1.91912 3.25245C1.54405 3.62753 1.33333 4.13623 1.33333 4.66667V11.3333C1.33333 11.8638 1.54405 12.3725 1.91912 12.7475C2.29419 13.1226 2.8029 13.3333 3.33333 13.3333H12.6667C13.1971 13.3333 13.7058 13.1226 14.0809 12.7475C14.456 12.3725 14.6667 11.8638 14.6667 11.3333V4.66667C14.6667 4.13623 14.456 3.62753 14.0809 3.25245C13.7058 2.87738 13.1971 2.66667 12.6667 2.66667ZM12.22 4L8 7.16667L3.78 4H12.22ZM12.6667 12H3.33333C3.15652 12 2.98695 11.9298 2.86193 11.8047C2.7369 11.6797 2.66667 11.5101 2.66667 11.3333V4.83333L7.6 8.53333C7.7154 8.61988 7.85575 8.66667 8 8.66667C8.14425 8.66667 8.2846 8.61988 8.4 8.53333L13.3333 4.83333V11.3333C13.3333 11.5101 13.2631 11.6797 13.1381 11.8047C13.013 11.9298 12.8435 12 12.6667 12Z" fill="#D78E28"/>
</svg>
