<svg width="16" height="16" viewBox="0 0 16 16" fill="none" xmlns="http://www.w3.org/2000/svg">
<path fill-rule="evenodd" clip-rule="evenodd" d="M8 1.33334C4.31813 1.33334 1.33334 4.31809 1.33334 8C1.33334 11.6819 4.31813 14.6667 8 14.6667C11.6819 14.6667 14.6667 11.6819 14.6667 8C14.6667 4.31809 11.6819 1.33334 8 1.33334ZM8 13.3333C5.05922 13.3333 2.66669 10.9408 2.66669 8C2.66669 5.05919 5.05919 2.66669 8 2.66669C10.9408 2.66669 13.3333 5.05919 13.3333 8C13.3333 10.9408 10.9408 13.3333 8 13.3333ZM8.83481 5.33334C8.83481 5.81672 8.48288 6.16669 8.00678 6.16669C7.51144 6.16669 7.16813 5.81669 7.16813 5.32409C7.16813 4.85066 7.52072 4.50003 8.00678 4.50003C8.48288 4.50003 8.83481 4.85066 8.83481 5.33334ZM7.33481 7.33334H8.66813V11.3333H7.33481V7.33334Z" fill="#D78E28"/>
</svg>
