<svg width="16" height="16" viewBox="0 0 16 16" fill="none" xmlns="http://www.w3.org/2000/svg">
<path d="M2 5.5C1.99993 4.91987 2.14406 4.34883 2.41943 3.83822C2.6948 3.32761 3.09277 2.89346 3.57755 2.57481C4.06233 2.25617 4.61872 2.06302 5.19666 2.01274C5.7746 1.96246 6.35598 2.05663 6.88851 2.28678C7.42103 2.51692 7.88799 2.87583 8.2474 3.33121C8.60681 3.78659 8.84739 4.32417 8.94749 4.8956C9.0476 5.46702 9.0041 6.05437 8.82091 6.60481C8.63771 7.15526 8.32057 7.65153 7.898 8.049C8.69471 8.43579 9.38644 9.00894 9.91458 9.71986C10.4427 10.4308 10.7917 11.2585 10.932 12.133C10.9474 12.2303 10.9435 12.3297 10.9206 12.4255C10.8976 12.5213 10.8559 12.6117 10.7981 12.6914C10.7402 12.7711 10.6671 12.8386 10.5831 12.8901C10.4991 12.9416 10.4058 12.9761 10.3085 12.9915C10.2112 13.0069 10.1118 13.003 10.016 12.9801C9.92018 12.9571 9.82984 12.9154 9.75012 12.8576C9.6704 12.7997 9.60287 12.7266 9.55137 12.6426C9.49988 12.5586 9.46543 12.4653 9.45 12.368C9.30001 11.4283 8.81993 10.5729 8.09597 9.9553C7.372 9.33772 6.45159 8.99848 5.5 8.99848C4.54841 8.99848 3.628 9.33772 2.90403 9.9553C2.18007 10.5729 1.69999 11.4283 1.55 12.368C1.5345 12.4653 1.49999 12.5586 1.44844 12.6426C1.39688 12.7266 1.32929 12.7996 1.24953 12.8574C1.16976 12.9153 1.07938 12.9568 0.983551 12.9798C0.887718 13.0027 0.788309 13.0065 0.691 12.991C0.59369 12.9755 0.500386 12.941 0.416414 12.8894C0.332442 12.8379 0.259446 12.7703 0.201595 12.6905C0.143744 12.6108 0.102171 12.5204 0.0792486 12.4246C0.0563263 12.3287 0.052504 12.2293 0.068 12.132C0.207772 11.2576 0.556594 10.4299 1.08482 9.71923C1.61304 9.00855 2.30504 8.43592 3.102 8.05C2.754 7.72267 2.4767 7.32756 2.28718 6.88901C2.09765 6.45046 1.99992 5.97775 2 5.5ZM11 4C11.581 4.00041 12.1494 4.16946 12.6362 4.48665C13.123 4.80384 13.5073 5.25551 13.7423 5.78685C13.9774 6.31819 14.0532 6.90633 13.9604 7.4799C13.8677 8.05347 13.6105 8.58779 13.22 9.018C13.829 9.3197 14.3701 9.7424 14.8103 10.2603C15.2504 10.7781 15.5804 11.3803 15.78 12.03C15.8196 12.1561 15.8252 12.2904 15.7962 12.4193C15.7671 12.5482 15.7045 12.6672 15.6146 12.7641C15.5247 12.8609 15.4108 12.9323 15.2844 12.9709C15.158 13.0096 15.0237 13.0141 14.895 12.984C14.7663 12.9542 14.6478 12.891 14.5514 12.8008C14.455 12.7105 14.3842 12.5964 14.346 12.47C14.1665 11.8904 13.8398 11.3671 13.3978 10.9514C12.9558 10.5357 12.4136 10.2416 11.824 10.098C11.6602 10.0585 11.5146 9.96495 11.4104 9.83252C11.3063 9.70009 11.2498 9.53646 11.25 9.368V9.016C11.2499 8.87637 11.2888 8.73948 11.3623 8.62076C11.4358 8.50203 11.541 8.40618 11.666 8.344C11.9692 8.19375 12.2126 7.94543 12.3568 7.63935C12.5011 7.33327 12.5376 6.98743 12.4604 6.65799C12.3833 6.32855 12.197 6.03487 11.9319 5.82465C11.6668 5.61443 11.3384 5.50002 11 5.5C10.8011 5.5 10.6103 5.42098 10.4697 5.28033C10.329 5.13968 10.25 4.94891 10.25 4.75C10.25 4.55109 10.329 4.36032 10.4697 4.21967C10.6103 4.07902 10.8011 4 11 4ZM5.5 3.5C5.23366 3.49398 4.9688 3.54123 4.72098 3.63897C4.47315 3.73672 4.24735 3.88299 4.05683 4.0692C3.86631 4.25542 3.71491 4.47782 3.61153 4.72334C3.50814 4.96887 3.45485 5.23258 3.45478 5.49899C3.45472 5.7654 3.50788 6.02913 3.61114 6.27471C3.7144 6.52029 3.86569 6.74277 4.05611 6.92908C4.24654 7.11538 4.47227 7.26177 4.72005 7.35964C4.96782 7.45751 5.23266 7.50489 5.499 7.499C6.02156 7.48744 6.51883 7.27178 6.88437 6.89816C7.24991 6.52455 7.45465 6.02268 7.45478 5.49999C7.45492 4.9773 7.25042 4.47533 6.88507 4.10153C6.51972 3.72773 6.02256 3.51182 5.5 3.5Z" fill="#D78E28"/>
</svg>
