<svg width="16" height="16" viewBox="0 0 16 16" fill="none" xmlns="http://www.w3.org/2000/svg">
<g clip-path="url(#clip0_2223_5959)">
<path d="M6.102 3.60533C6.94667 2.09067 7.36867 1.33333 8 1.33333C8.63133 1.33333 9.05333 2.09067 9.898 3.60533L10.1167 3.99733C10.3567 4.428 10.4767 4.64333 10.6633 4.78533C10.85 4.92733 11.0833 4.98 11.55 5.08533L11.974 5.18133C13.614 5.55267 14.4333 5.738 14.6287 6.36533C14.8233 6.992 14.2647 7.646 13.1467 8.95333L12.8573 9.29133C12.54 9.66267 12.3807 9.84867 12.3093 10.078C12.238 10.308 12.262 10.556 12.31 11.0513L12.354 11.5027C12.5227 13.2473 12.6073 14.1193 12.0967 14.5067C11.586 14.894 10.818 14.5407 9.28333 13.834L8.88533 13.6513C8.44933 13.45 8.23133 13.35 8 13.35C7.76867 13.35 7.55067 13.45 7.11467 13.6513L6.71733 13.834C5.182 14.5407 4.414 14.894 3.904 14.5073C3.39267 14.1193 3.47733 13.2473 3.646 11.5027L3.69 11.052C3.738 10.556 3.762 10.308 3.69 10.0787C3.61933 9.84867 3.46 9.66267 3.14267 9.292L2.85333 8.95333C1.73533 7.64667 1.17667 6.99267 1.37133 6.36533C1.566 5.738 2.38667 5.552 4.02667 5.18133L4.45067 5.08533C4.91667 4.98 5.14933 4.92733 5.33667 4.78533C5.524 4.64333 5.64333 4.428 5.88333 3.99733L6.102 3.60533Z" stroke="#D78E28" stroke-width="1.5"/>
</g>
<defs>
<clipPath id="clip0_2223_5959">
<rect width="16" height="16" fill="white"/>
</clipPath>
</defs>
</svg>
