<svg width="43" height="13" viewBox="0 0 43 13" fill="none" xmlns="http://www.w3.org/2000/svg">
<path d="M9.85224 12.4165V12.5694H6.84331L3.7545 8.08787H2.72135V12.5694H0V0.268893H4.15924C5.2563 0.268893 6.17229 0.43761 6.90189 0.780316C7.64214 1.10721 8.19067 1.5659 8.5528 2.14587C8.90961 2.71529 9.09068 3.36907 9.09068 4.10193C9.09068 4.96134 8.87234 5.71002 8.44097 6.34271C8.00427 6.96485 7.36521 7.42355 6.52378 7.72935L9.85756 12.4165H9.85224ZM2.72135 6.058H3.89296C4.65984 6.058 5.24565 5.91037 5.65572 5.62039C6.07643 5.3304 6.28945 4.85061 6.28945 4.17575C6.28945 3.59578 6.10306 3.15817 5.7356 2.86819C5.36814 2.57821 4.84623 2.43058 4.18054 2.43058H2.72135V6.058ZM20.94 12.833C19.6885 12.833 18.6607 12.6063 17.8512 12.1476C17.047 11.6784 16.4559 11.051 16.0884 10.2707C15.7316 9.47452 15.5506 8.56766 15.5506 7.55536V0.268893H18.2719V7.23374C18.2719 8.29877 18.4849 9.12654 18.9056 9.72232C19.3264 10.3023 20.0613 10.5975 21.1104 10.5975C22.1595 10.5975 22.8093 10.3076 23.2193 9.72232C23.6294 9.12654 23.8318 8.36204 23.8318 7.42355V0.268893H26.5531V7.50264C26.5531 8.75747 26.3081 9.78032 25.8235 10.5764C25.3389 11.362 24.6732 11.9367 23.8318 12.3058C23.001 12.6591 22.0371 12.8383 20.9347 12.8383L20.94 12.833ZM37.2201 12.833C35.303 12.833 33.6733 12.3374 32.3313 11.3515L33.5562 9.47452C34.7438 10.2232 35.9101 10.5923 37.0444 10.5923C37.774 10.5923 38.3438 10.4763 38.7486 10.2496C39.1693 10.0228 39.3823 9.68014 39.3823 9.22671C39.3823 8.94728 39.3131 8.72056 39.1693 8.5413C39.0415 8.35149 38.8072 8.17223 38.461 8.00879C38.1308 7.82953 37.6249 7.60808 36.9485 7.34446L36.5065 7.17575C35.6864 6.8594 35.0314 6.5536 34.5308 6.26362C34.0302 5.97364 33.6361 5.5993 33.3432 5.14587C33.0503 4.69244 32.9011 4.11248 32.9011 3.41652C32.9011 2.64675 33.1248 2.00351 33.5722 1.49736C34.0195 0.980668 34.5947 0.601055 35.2976 0.358524C36.0006 0.115993 36.7462 0 37.5397 0C38.2533 0 38.9882 0.121266 39.7445 0.358524C40.5113 0.585237 41.2409 0.927944 41.9279 1.38137L40.6817 3.24253C40.0693 2.87346 39.5261 2.60984 39.0521 2.4464C38.5782 2.28295 38.0669 2.19859 37.5184 2.19859C36.9059 2.19859 36.4373 2.29877 36.1178 2.50439C35.8089 2.70475 35.6598 2.97891 35.6598 3.32162C35.6598 3.53779 35.7237 3.73286 35.8515 3.91213C35.9793 4.07557 36.2083 4.24956 36.5438 4.42355C36.874 4.58699 37.3533 4.78207 37.9817 5.01406L38.4024 5.16696C39.2225 5.47276 39.8776 5.75747 40.3782 6.02109C40.8894 6.28471 41.3155 6.66432 41.6616 7.15993C42.0078 7.65554 42.1782 8.2935 42.1782 9.07909C42.1782 9.86467 41.9599 10.5975 41.5285 11.167C41.0918 11.7258 40.5007 12.1424 39.7445 12.4218C39.0042 12.7012 38.1574 12.8383 37.2148 12.8383L37.2201 12.833Z" fill="#D78E28"/>
</svg>
