<svg width="15" height="15" viewBox="0 0 15 15" fill="none" xmlns="http://www.w3.org/2000/svg">
<path d="M5.51933 3.022C6.364 1.50733 6.786 0.75 7.41733 0.75C8.04866 0.75 8.47066 1.50733 9.31533 3.022L9.534 3.414C9.774 3.84467 9.894 4.06 10.0807 4.202C10.2673 4.344 10.5007 4.39667 10.9673 4.502L11.3913 4.598C13.0313 4.96933 13.8507 5.15467 14.046 5.782C14.2407 6.40867 13.682 7.06267 12.564 8.37L12.2747 8.708C11.9573 9.07933 11.798 9.26533 11.7267 9.49467C11.6553 9.72467 11.6793 9.97267 11.7273 10.468L11.7713 10.9193C11.94 12.664 12.0247 13.536 11.514 13.9233C11.0033 14.3107 10.2353 13.9573 8.70066 13.2507L8.30266 13.068C7.86666 12.8667 7.64866 12.7667 7.41733 12.7667C7.186 12.7667 6.968 12.8667 6.532 13.068L6.13466 13.2507C4.59933 13.9573 3.83133 14.3107 3.32133 13.924C2.81 13.536 2.89466 12.664 3.06333 10.9193L3.10733 10.4687C3.15533 9.97267 3.17933 9.72467 3.10733 9.49533C3.03666 9.26533 2.87733 9.07933 2.56 8.70867L2.27066 8.37C1.15266 7.06333 0.593997 6.40933 0.788663 5.782C0.98333 5.15467 1.804 4.96867 3.444 4.598L3.868 4.502C4.334 4.39667 4.56666 4.344 4.754 4.202C4.94133 4.06 5.06066 3.84467 5.30066 3.414L5.51933 3.022Z" stroke="#D78E28" stroke-width="1.5"/>
</svg>
