<svg width="56" height="18" viewBox="0 0 56 18" fill="none" xmlns="http://www.w3.org/2000/svg">
<path d="M13.0438 16.5554V16.7592H9.06015L4.97075 10.7838H3.60291V16.7592H0V0.358524H5.5066C6.95904 0.358524 8.17177 0.583479 9.13771 1.04042C10.1178 1.47627 10.844 2.08787 11.3234 2.86116C11.7958 3.62039 12.0356 4.49209 12.0356 5.46924C12.0356 6.61511 11.7465 7.61336 11.1754 8.45694C10.5972 9.28647 9.75112 9.89807 8.63711 10.3058L13.0509 16.5554H13.0438ZM3.60291 8.07733H5.15406C6.16937 8.07733 6.94495 7.88049 7.48785 7.49385C8.04486 7.10721 8.32688 6.46749 8.32688 5.56766C8.32688 4.79438 8.08011 4.2109 7.59361 3.82425C7.10711 3.43761 6.41614 3.24077 5.5348 3.24077H3.60291V8.07733ZM27.7234 17.1107C26.0665 17.1107 24.7057 16.8084 23.634 16.1968C22.5693 15.5712 21.7867 14.7346 21.3002 13.6942C20.8278 12.6327 20.5881 11.4235 20.5881 10.0738V0.358524H24.191V9.64499C24.191 11.065 24.473 12.1687 25.03 12.9631C25.587 13.7364 26.56 14.1301 27.949 14.1301C29.338 14.1301 30.1982 13.7434 30.7411 12.9631C31.284 12.1687 31.5519 11.1494 31.5519 9.89807V0.358524H35.1548V10.0035C35.1548 11.6766 34.8305 13.0404 34.1889 14.1019C33.5473 15.1494 32.6659 15.9156 31.5519 16.4077C30.452 16.8787 29.1758 17.1178 27.7163 17.1178L27.7234 17.1107ZM49.2774 17.1107C46.7391 17.1107 44.5816 16.4499 42.8048 15.1353L44.4265 12.6327C45.9988 13.6309 47.5429 14.123 49.0447 14.123C50.0106 14.123 50.7651 13.9684 51.3009 13.6661C51.8579 13.3638 52.14 12.9069 52.14 12.3023C52.14 11.9297 52.0483 11.6274 51.8579 11.3884C51.6887 11.1353 51.3785 10.8963 50.9202 10.6784C50.483 10.4394 49.8132 10.1441 48.9178 9.79262L48.3326 9.56766C47.2468 9.14587 46.3795 8.73814 45.7168 8.35149C45.054 7.96485 44.5323 7.46573 44.1445 6.86116C43.7567 6.25659 43.5593 5.4833 43.5593 4.55536C43.5593 3.529 43.8554 2.67135 44.4476 1.99649C45.0399 1.30756 45.8014 0.801406 46.7321 0.478032C47.6628 0.154657 48.6499 0 49.7004 0C50.6452 0 51.6182 0.161687 52.6194 0.478032C53.6347 0.780317 54.6007 1.23726 55.5102 1.84183L53.8603 4.32337C53.0495 3.83128 52.3303 3.47979 51.7028 3.26186C51.0753 3.04394 50.3984 2.93146 49.6722 2.93146C48.8614 2.93146 48.2409 3.06503 47.8179 3.33919C47.4089 3.60633 47.2115 3.97188 47.2115 4.42882C47.2115 4.71705 47.2961 4.97715 47.4653 5.21617C47.6346 5.43409 47.9377 5.66608 48.3819 5.89807C48.8191 6.11599 49.4536 6.3761 50.2856 6.68541L50.8426 6.88928C51.9284 7.29701 52.7957 7.67663 53.4584 8.02812C54.1353 8.37961 54.6994 8.88576 55.1577 9.54657C55.616 10.2074 55.8416 11.058 55.8416 12.1054C55.8416 13.1529 55.5525 14.1301 54.9814 14.8893C54.4032 15.6344 53.6206 16.1898 52.6194 16.5624C51.6394 16.935 50.5183 17.1178 49.2703 17.1178L49.2774 17.1107Z" fill="#D78E28"/>
</svg>
