<svg width="10" height="13" viewBox="0 0 10 13" fill="none" xmlns="http://www.w3.org/2000/svg">
<path d="M9 6.33333V9.66667C9 10.7713 7.20933 11.6667 5 11.6667C2.79067 11.6667 1 10.7713 1 9.66667V6.33333M9 6.33333V3M9 6.33333C9 7.438 7.20933 8.33333 5 8.33333C2.79067 8.33333 1 7.438 1 6.33333M1 6.33333V3M9 3C9 1.89533 7.20933 1 5 1C2.79067 1 1 1.89533 1 3M9 3C9 4.10467 7.20933 5 5 5C2.79067 5 1 4.10467 1 3" stroke="#D78E28" stroke-width="2" stroke-linecap="round" stroke-linejoin="round"/>
</svg>
