<svg width="14" height="11" viewBox="0 0 14 11" fill="none" xmlns="http://www.w3.org/2000/svg">
<path d="M11.3333 0H2C1.46957 0 0.960859 0.210714 0.585787 0.585787C0.210714 0.960859 0 1.46957 0 2V8.66667C0 9.1971 0.210714 9.70581 0.585787 10.0809C0.960859 10.456 1.46957 10.6667 2 10.6667H11.3333C11.8638 10.6667 12.3725 10.456 12.7475 10.0809C13.1226 9.70581 13.3333 9.1971 13.3333 8.66667V2C13.3333 1.46957 13.1226 0.960859 12.7475 0.585787C12.3725 0.210714 11.8638 0 11.3333 0ZM10.8867 1.33333L6.66667 4.5L2.44667 1.33333H10.8867ZM11.3333 9.33333H2C1.82319 9.33333 1.65362 9.2631 1.5286 9.13807C1.40357 9.01305 1.33333 8.84348 1.33333 8.66667V2.16667L6.26667 5.86667C6.38206 5.95322 6.52242 6 6.66667 6C6.81091 6 6.95127 5.95322 7.06667 5.86667L12 2.16667V8.66667C12 8.84348 11.9298 9.01305 11.8047 9.13807C11.6797 9.2631 11.5101 9.33333 11.3333 9.33333Z" fill="#325A7D"/>
</svg>
